<svg width="26" height="27" viewBox="0 0 26 27" fill="none" xmlns="http://www.w3.org/2000/svg">
<path d="M14.0283 1.00012H14.3692C18.4457 1.00012 20.484 1.00012 21.8995 1.99742C22.305 2.28316 22.6651 2.62203 22.9687 3.00373C24.0283 4.33596 24.0283 6.25432 24.0283 10.091V13.2729C24.0283 16.9768 24.0283 18.8288 23.4421 20.3079C22.4998 22.6858 20.5069 24.5615 17.9804 25.4484C16.4088 26.0001 14.4411 26.0001 10.5056 26.0001C8.25676 26.0001 7.13234 26.0001 6.23429 25.6849C4.79056 25.1781 3.65176 24.1063 3.11327 22.7474C2.77832 21.9022 2.77832 20.8439 2.77832 18.7274V13.5001" stroke="#3276E8" stroke-width="2" stroke-linecap="round" stroke-linejoin="round"/>
<path d="M24.0283 13.5C24.0283 15.8012 22.1628 17.6667 19.8617 17.6667C19.0294 17.6667 18.0483 17.5208 17.2391 17.7377C16.5202 17.9303 15.9586 18.4919 15.766 19.2108C15.5492 20.02 15.695 21.0011 15.695 21.8333C15.695 24.1345 13.8295 26 11.5283 26" stroke="#3276E8" stroke-width="2" stroke-linecap="round" stroke-linejoin="round"/>
<path d="M11.5281 6.00012L1.52808 6.00012M6.52808 1.00012V11.0001" stroke="#3276E8" stroke-width="2" stroke-linecap="round"/>
</svg>
