<svg width="210" height="111" viewBox="0 0 210 111" fill="none" xmlns="http://www.w3.org/2000/svg">
<path d="M102.674 98.3825C102.674 98.3825 127.753 94.0635 137.316 92.521C146.879 90.9785 164.11 89.9502 164.11 89.9502C164.11 89.9502 168.891 91.0814 167.177 84.8086C165.463 78.5358 159.771 56.9106 155.81 46.0408C152.947 38.1822 150.135 31.8206 147.33 26.7083C143.871 20.4056 141.737 18.3788 141.737 18.3788C141.737 18.3788 136.504 11.2834 126.039 28.4564C115.574 45.6294 107.094 67.0186 104.117 76.2735C101.14 85.5284 99.8769 90.2587 99.2454 92.4182C98.6139 94.5777 96.6291 99.5136 102.674 98.3825Z" fill="#3771C8" stroke="black" stroke-width="0.137243" stroke-linecap="round" stroke-linejoin="round"/>
<path d="M11.073 62.3418L3.12134 84.2945L5.60238 84.3459L8.12827 76.8389L15.8812 76.8663L18.4009 84.3832L21.0961 84.3741L13.4053 62.3418L11.073 62.3418ZM12.0377 65.1596L15.3789 75.2031H8.58499L12.0377 65.1596Z" fill="black" stroke="black" stroke-width="0.137243" stroke-linecap="round" stroke-linejoin="round"/>
<path d="M33.2588 69.1909L35.4691 69.1845V80.2068C35.4691 80.2068 35.7792 82.5205 37.6962 82.7519C39.6133 82.9833 40.8763 82.5462 41.5755 82.2377C42.2746 81.9293 43.6504 81.0295 43.6504 81.0295V69.0752H45.8156L45.7705 84.4229H43.5828V82.829C43.5828 82.829 41.8236 83.8059 40.6734 84.243C39.5231 84.68 39.0269 84.68 38.2601 84.68C37.4933 84.68 36.4784 84.6029 35.5311 84.2173C34.5838 83.8316 33.7945 82.5205 33.5915 81.9807C33.3885 81.4408 33.3208 80.5153 33.3208 80.5153L33.2588 69.1909Z" fill="black" stroke="black" stroke-width="0.137243" stroke-linecap="round" stroke-linejoin="round"/>
<path d="M60.9041 65.2705V69.1781H58.6262V71.0548H60.9022V81.1293C60.9022 81.1293 60.8225 82.2473 61.4205 83.2653C62.0186 84.2833 63.5576 84.6196 63.5576 84.6196C63.5576 84.6196 64.5703 84.7014 65.1763 84.6741C65.7823 84.6468 67.2176 84.4468 67.2734 84.4105C67.3293 84.3742 67.2974 82.5472 67.2974 82.5472C67.2974 82.5472 66.1491 82.8653 65.4474 82.8562C64.7457 82.8472 64.4028 82.9289 63.9164 82.4745C63.43 82.02 63.1828 81.1838 63.1828 81.1838C63.1828 81.1838 63.0473 80.6839 63.0393 80.2295C63.0313 79.775 63.0553 71.0221 63.0553 71.0221L66.7313 71.0312L66.8907 69.1679H63.0553V65.2778L60.9041 65.2705Z" fill="black" stroke="black" stroke-width="0.137243" stroke-linecap="round" stroke-linejoin="round"/>
<path d="M80.4583 62.314V84.4743H82.6234V72.0316C82.6234 72.0316 84.1077 71.2463 85.4878 70.9005C86.6231 70.616 87.8108 70.6948 88.3972 70.8491C89.7377 71.2017 90.3368 72.3401 90.3368 72.3401C90.3368 72.3401 90.7654 73.1885 90.7428 74.5253C90.7202 75.8622 90.7428 84.4714 90.7428 84.4714H92.9491L92.9531 73.06C92.9531 73.06 92.7952 71.7232 91.9382 70.7977C91.5236 70.35 90.9683 69.7693 90.5624 69.5637C89.8971 69.2266 88.9162 68.9636 87.9236 68.9724C86.9487 68.981 85.6457 69.1266 84.1797 69.7436C82.3043 70.5329 82.5332 70.3092 82.5332 70.3092L82.5213 62.3171L80.457 62.3159" fill="black"/>
<path d="M80.4583 62.314V84.4743H82.6234V72.0316C82.6234 72.0316 84.1077 71.2463 85.4878 70.9005C86.6231 70.616 87.8108 70.6948 88.3972 70.8491C89.7377 71.2018 90.3368 72.3402 90.3368 72.3402C90.3368 72.3402 90.7654 73.1885 90.7428 74.5253C90.7202 75.8622 90.7428 84.4714 90.7428 84.4714H92.9491L92.9531 73.06C92.9531 73.06 92.7952 71.7232 91.9382 70.7977C91.5236 70.35 90.9683 69.7693 90.5624 69.5637C89.8971 69.2266 88.9162 68.9636 87.9236 68.9724C86.9487 68.981 85.6457 69.1266 84.1797 69.7436C82.3043 70.5329 82.5332 70.3092 82.5332 70.3092L82.5213 62.3171L80.457 62.3159" stroke="black" stroke-width="0.137243" stroke-linecap="round" stroke-linejoin="round"/>
<path d="M113.133 68.8737C112.398 68.8797 111.23 68.9659 110.229 69.3837C108.628 70.0521 107.162 71.0289 107.162 71.0289L108.402 72.623C108.402 72.623 110.297 71.2861 111.379 71.0548C112.462 70.8234 113.68 70.592 114.762 70.9519C115.845 71.3119 116.093 72.0061 116.093 72.0061C116.093 72.0061 116.341 72.3144 116.341 72.9571C116.341 73.5998 116.319 75.0395 116.319 75.0395C116.319 75.0395 112.236 75.0139 109.823 76.145C107.41 77.2761 106.711 78.8958 106.711 78.8958C106.711 78.8958 105.763 80.8237 106.575 82.5461C107.387 84.2686 109.372 84.6285 109.372 84.6285C109.372 84.6285 111.627 85.3484 113.973 84.1144C116.319 82.8804 116.499 82.3919 116.499 82.3919C116.499 82.3919 116.827 83.4461 117.131 83.8318C117.472 84.2655 117.739 84.8343 118.845 84.8086C119.95 84.7829 120.536 84.4743 120.536 84.4743L121.619 83.9087L121.19 82.8805C121.19 82.8805 119.296 83.2403 119.115 82.3919C118.935 81.5435 118.89 81.5481 118.89 80.3098C118.89 79.0244 118.912 77.8416 118.912 77.8416C118.89 75.2451 118.89 72.9829 118.89 72.9829C118.89 72.9829 118.732 71.1832 117.266 70.0521C115.8 68.9209 113.86 68.8954 113.86 68.8954C113.86 68.8954 113.575 68.87 113.133 68.8737ZM116.319 76.5563V80.9782C116.319 80.9782 114.65 82.2121 113.071 82.5206C111.492 82.8291 110.319 82.9061 109.507 82.032C108.695 81.1579 108.808 80.0268 109.169 79.1784C109.53 78.33 110.815 77.4045 111.875 77.1474C112.935 76.8903 113.747 76.6591 114.627 76.6077C115.507 76.5563 116.319 76.5563 116.319 76.5563Z" fill="white" stroke="black" stroke-width="0.137243" stroke-linecap="round" stroke-linejoin="round"/>
<path d="M134.001 69.1266V84.5258H136.391V73.7541C136.391 73.7541 137.136 72.443 138.534 71.826C139.932 71.209 142.413 71.3118 142.413 71.3118L142.977 68.8953C142.977 68.8953 140.451 68.741 139.075 69.6151C137.7 70.4892 136.414 71.8003 136.414 71.8003V69.1266H134.001Z" fill="white" stroke="black" stroke-width="0.137243" stroke-linecap="round" stroke-linejoin="round"/>
<path d="M155.391 65.2705V69.1781H153.114V71.0548H155.39V81.1293C155.39 81.1293 155.31 82.2473 155.908 83.2653C156.506 84.2833 158.045 84.6196 158.045 84.6196C158.045 84.6196 159.058 84.7014 159.664 84.6741C160.27 84.6468 161.705 84.4468 161.761 84.4105C161.817 84.3742 161.785 82.5472 161.785 82.5472C161.785 82.5472 160.636 82.8653 159.935 82.8562C159.233 82.8472 158.89 82.9289 158.404 82.4745C157.917 82.02 157.67 81.1838 157.67 81.1838C157.67 81.1838 157.535 80.6839 157.527 80.2295C157.519 79.775 157.543 71.0221 157.543 71.0221L161.219 71.0312L161.378 69.1679H157.543V65.2778L155.391 65.2705Z" fill="white" stroke="black" stroke-width="0.137243" stroke-linecap="round" stroke-linejoin="round"/>
<path d="M177.327 64.3577C177.327 64.7565 177.189 65.139 176.944 65.4211C176.698 65.7031 176.366 65.8616 176.019 65.8616C175.672 65.8616 175.339 65.7033 175.094 65.4213C174.848 65.1393 174.711 64.7569 174.71 64.358C174.71 63.9592 174.848 63.5766 175.093 63.2945C175.339 63.0124 175.671 62.8539 176.018 62.8538C176.365 62.8536 176.698 63.0119 176.943 63.2938C177.189 63.5757 177.327 63.9582 177.327 64.357M175.116 69.2037H177.191V84.3971H175.094L175.116 69.2037Z" fill="black"/>
<path d="M177.327 64.3577C177.327 64.7565 177.189 65.139 176.944 65.4211C176.698 65.7031 176.366 65.8616 176.019 65.8616C175.672 65.8616 175.339 65.7033 175.094 65.4213C174.848 65.1393 174.711 64.7569 174.71 64.358C174.71 63.9592 174.848 63.5766 175.093 63.2945C175.339 63.0124 175.671 62.8539 176.018 62.8538C176.365 62.8536 176.698 63.0119 176.943 63.2938C177.189 63.5757 177.327 63.9582 177.327 64.357M175.116 69.2037H177.191V84.3971H175.094L175.116 69.2037Z" stroke="black" stroke-width="0.137243" stroke-linecap="round" stroke-linejoin="round"/>
<path d="M202.249 72.3402L203.602 71.0805C203.602 71.0805 201.737 68.8696 198.685 68.8696C196.926 68.8696 194.347 68.8856 192.257 72.6487C191.13 74.6797 191.197 79.3328 192.438 81.4152C193.257 82.7904 194.969 84.5082 198.031 84.7058C200.422 84.8601 202.046 84.2174 203.399 83.0091C204.297 82.2068 204.301 81.9293 204.301 81.9293L202.745 80.8753C202.745 80.8753 201.662 82.8034 199.339 82.9577C197.016 83.1119 195.55 82.3664 194.671 80.8753C193.791 79.3842 193.408 78.3045 193.565 75.6052C193.723 72.9058 195.528 71.3633 196.52 70.9006C197.512 70.4378 198.866 70.4834 199.677 70.6435C201.212 70.9464 202.249 72.3402 202.249 72.3402Z" fill="black" stroke="black" stroke-width="0.137243" stroke-linecap="round" stroke-linejoin="round"/>
<path d="M102.674 98.3825C102.674 98.3825 127.753 94.0635 137.316 92.521C146.879 90.9785 164.11 89.9502 164.11 89.9502C164.11 89.9502 168.891 91.0814 167.177 84.8086C165.463 78.5358 159.771 56.9106 155.81 46.0408C152.947 38.1822 150.135 31.8206 147.33 26.7083C143.871 20.4056 141.737 18.3788 141.737 18.3788C141.737 18.3788 136.504 11.2834 126.039 28.4564C115.574 45.6294 107.094 67.0186 104.117 76.2735C101.14 85.5284 99.8769 90.2587 99.2454 92.4182C98.6139 94.5777 96.6291 99.5136 102.674 98.3825Z" stroke="black" stroke-width="0.137243" stroke-linecap="round" stroke-linejoin="round"/>
</svg>
