<svg width="387" height="204" viewBox="0 0 387 204" fill="none" xmlns="http://www.w3.org/2000/svg">
<path d="M189.213 180.811C189.213 180.811 235.431 172.873 253.054 170.038C270.677 167.204 302.431 165.314 302.431 165.314C302.431 165.314 311.243 167.393 308.084 155.864C304.925 144.336 294.435 104.592 287.136 84.6153C281.859 70.1725 276.678 58.481 271.508 49.0853C265.135 37.502 261.201 33.7772 261.201 33.7772C261.201 33.7772 251.558 20.7369 232.272 52.2981C212.987 83.8594 197.359 123.169 191.873 140.178C186.386 157.187 184.059 165.881 182.895 169.85C181.731 173.818 178.074 182.89 189.213 180.811Z" fill="#3771C8" stroke="black" stroke-width="0.137243" stroke-linecap="round" stroke-linejoin="round"/>
<path d="M20.4058 114.574L5.75208 154.919L10.3243 155.014L14.9791 141.217L29.2667 141.268L33.9101 155.083L38.877 155.066L24.704 114.574L20.4058 114.574ZM22.1837 119.753L28.3409 138.211H15.8208L22.1837 119.753Z" fill="black" stroke="black" stroke-width="0.137243" stroke-linecap="round" stroke-linejoin="round"/>
<path d="M61.2911 127.162L65.3643 127.15V147.407C65.3643 147.407 65.9358 151.659 69.4687 152.085C73.0016 152.51 75.3292 151.707 76.6176 151.14C77.9061 150.573 80.4415 148.919 80.4415 148.919V126.949H84.4315L84.3484 155.156H80.3168V152.226C80.3168 152.226 77.0749 154.022 74.9551 154.825C72.8354 155.628 71.921 155.628 70.5078 155.628C69.0947 155.628 67.2243 155.486 65.4787 154.778C63.733 154.069 62.2783 151.659 61.9042 150.667C61.5302 149.675 61.4055 147.974 61.4055 147.974L61.2911 127.162Z" fill="black" stroke="black" stroke-width="0.137243" stroke-linecap="round" stroke-linejoin="round"/>
<path d="M112.237 119.956V127.138H108.04V130.587H112.234V149.102C112.234 149.102 112.087 151.157 113.189 153.028C114.291 154.899 117.127 155.517 117.127 155.517C117.127 155.517 118.994 155.667 120.11 155.617C121.227 155.567 123.872 155.199 123.975 155.132C124.078 155.066 124.019 151.708 124.019 151.708C124.019 151.708 121.903 152.293 120.61 152.276C119.317 152.259 118.685 152.41 117.789 151.574C116.892 150.739 116.437 149.202 116.437 149.202C116.437 149.202 116.187 148.284 116.172 147.448C116.158 146.613 116.202 130.527 116.202 130.527L122.976 130.544L123.27 127.119H116.202V119.97L112.237 119.956Z" fill="black" stroke="black" stroke-width="0.137243" stroke-linecap="round" stroke-linejoin="round"/>
<path d="M148.273 114.523V155.25H152.263V132.382C152.263 132.382 154.998 130.939 157.541 130.304C159.634 129.781 161.822 129.926 162.903 130.209C165.374 130.857 166.478 132.949 166.478 132.949C166.478 132.949 167.267 134.509 167.226 136.965C167.184 139.422 167.226 155.245 167.226 155.245H171.292L171.299 134.272C171.299 134.272 171.008 131.815 169.429 130.115C168.665 129.292 167.641 128.225 166.893 127.847C165.667 127.227 163.86 126.744 162.03 126.76C160.234 126.776 157.832 127.043 155.131 128.177C151.675 129.628 152.097 129.217 152.097 129.217L152.075 114.529L148.271 114.527" fill="black"/>
<path d="M148.273 114.523V155.25H152.263V132.382C152.263 132.382 154.998 130.939 157.541 130.304C159.634 129.781 161.822 129.926 162.903 130.209C165.374 130.857 166.478 132.949 166.478 132.949C166.478 132.949 167.267 134.509 167.226 136.965C167.184 139.422 167.226 155.245 167.226 155.245H171.292L171.299 134.272C171.299 134.272 171.008 131.815 169.429 130.115C168.665 129.292 167.641 128.225 166.893 127.847C165.667 127.227 163.86 126.744 162.03 126.76C160.234 126.776 157.832 127.043 155.131 128.177C151.675 129.628 152.097 129.217 152.097 129.217L152.075 114.529L148.271 114.527" stroke="black" stroke-width="0.137243" stroke-linecap="round" stroke-linejoin="round"/>
<path d="M208.489 126.578C207.134 126.59 204.981 126.748 203.136 127.516C200.185 128.744 197.484 130.539 197.484 130.539L199.77 133.469C199.77 133.469 203.261 131.012 205.256 130.587C207.251 130.162 209.496 129.737 211.491 130.398C213.486 131.06 213.943 132.335 213.943 132.335C213.943 132.335 214.4 132.902 214.4 134.083C214.4 135.264 214.359 137.91 214.359 137.91C214.359 137.91 206.835 137.863 202.388 139.942C197.941 142.021 196.653 144.998 196.653 144.998C196.653 144.998 194.907 148.541 196.403 151.706C197.9 154.872 201.557 155.533 201.557 155.533C201.557 155.533 205.713 156.856 210.036 154.588C214.358 152.321 214.691 151.423 214.691 151.423C214.691 151.423 215.295 153.36 215.855 154.069C216.484 154.866 216.977 155.912 219.014 155.864C221.05 155.817 222.131 155.25 222.131 155.25L224.126 154.211L223.336 152.321C223.336 152.321 219.845 152.982 219.512 151.423C219.18 149.864 219.097 149.872 219.097 147.596C219.097 145.234 219.138 143.06 219.138 143.06C219.097 138.288 219.097 134.131 219.097 134.131C219.097 134.131 218.806 130.823 216.104 128.744C213.403 126.665 209.828 126.618 209.828 126.618C209.828 126.618 209.302 126.572 208.489 126.578ZM214.359 140.698V148.825C214.359 148.825 211.283 151.092 208.373 151.659C205.464 152.226 203.303 152.368 201.806 150.761C200.31 149.155 200.518 147.076 201.183 145.517C201.848 143.958 204.217 142.257 206.17 141.784C208.124 141.312 209.62 140.887 211.241 140.792C212.862 140.698 214.359 140.698 214.359 140.698Z" fill="white" stroke="black" stroke-width="0.137243" stroke-linecap="round" stroke-linejoin="round"/>
<path d="M246.944 127.043V155.345H251.35V135.548C251.35 135.548 252.722 133.138 255.299 132.004C257.875 130.87 262.447 131.059 262.447 131.059L263.487 126.618C263.487 126.618 258.831 126.335 256.296 127.941C253.761 129.548 251.392 131.957 251.392 131.957V127.043H246.944Z" fill="white" stroke="black" stroke-width="0.137243" stroke-linecap="round" stroke-linejoin="round"/>
<path d="M286.364 119.956V127.138H282.166V130.587H286.361V149.102C286.361 149.102 286.214 151.157 287.316 153.028C288.418 154.899 291.254 155.517 291.254 155.517C291.254 155.517 293.12 155.667 294.237 155.617C295.354 155.567 297.999 155.199 298.102 155.132C298.205 155.066 298.146 151.708 298.146 151.708C298.146 151.708 296.03 152.293 294.737 152.276C293.444 152.259 292.812 152.41 291.915 151.574C291.019 150.739 290.563 149.202 290.563 149.202C290.563 149.202 290.314 148.284 290.299 147.448C290.284 146.613 290.328 130.527 290.328 130.527L297.103 130.544L297.397 127.119H290.328V119.97L286.364 119.956Z" fill="white" stroke="black" stroke-width="0.137243" stroke-linecap="round" stroke-linejoin="round"/>
<path d="M326.788 118.279C326.788 119.012 326.534 119.715 326.082 120.233C325.63 120.752 325.016 121.043 324.377 121.043C323.738 121.043 323.125 120.752 322.673 120.234C322.22 119.716 321.966 119.013 321.966 118.28C321.966 117.547 322.22 116.844 322.672 116.325C323.124 115.807 323.737 115.515 324.376 115.515C325.015 115.515 325.629 115.806 326.081 116.324C326.533 116.842 326.787 117.545 326.788 118.278M322.714 127.185H326.538V155.108H322.673L322.714 127.185Z" fill="black"/>
<path d="M326.788 118.279C326.788 119.012 326.534 119.715 326.082 120.233C325.63 120.752 325.016 121.043 324.377 121.043C323.738 121.043 323.125 120.752 322.673 120.234C322.22 119.716 321.966 119.013 321.966 118.28C321.966 117.547 322.22 116.844 322.672 116.325C323.124 115.807 323.737 115.515 324.376 115.515C325.015 115.515 325.629 115.806 326.081 116.324C326.533 116.842 326.787 117.545 326.788 118.278M322.714 127.185H326.538V155.108H322.673L322.714 127.185Z" stroke="black" stroke-width="0.137243" stroke-linecap="round" stroke-linejoin="round"/>
<path d="M372.715 132.949L375.209 130.634C375.209 130.634 371.771 126.571 366.148 126.571C362.906 126.571 358.153 126.6 354.302 133.516C352.224 137.249 352.349 145.801 354.635 149.628C356.145 152.155 359.299 155.312 364.943 155.675C369.348 155.959 372.341 154.778 374.835 152.557C376.491 151.083 376.497 150.573 376.497 150.573L373.629 148.635C373.629 148.635 371.634 152.179 367.353 152.462C363.072 152.746 360.371 151.376 358.75 148.635C357.129 145.895 356.422 143.911 356.713 138.95C357.004 133.989 360.329 131.154 362.158 130.304C363.987 129.453 366.482 129.537 367.977 129.831C370.805 130.388 372.715 132.949 372.715 132.949Z" fill="black" stroke="black" stroke-width="0.137243" stroke-linecap="round" stroke-linejoin="round"/>
<path d="M189.213 180.811C189.213 180.811 235.431 172.873 253.054 170.038C270.677 167.204 302.431 165.314 302.431 165.314C302.431 165.314 311.243 167.393 308.084 155.864C304.925 144.336 294.435 104.592 287.136 84.6153C281.859 70.1725 276.678 58.481 271.508 49.0853C265.135 37.502 261.201 33.7772 261.201 33.7772C261.201 33.7772 251.558 20.7369 232.272 52.2981C212.987 83.8594 197.359 123.169 191.873 140.178C186.386 157.187 184.059 165.881 182.895 169.85C181.731 173.818 178.074 182.89 189.213 180.811Z" stroke="black" stroke-width="0.137243" stroke-linecap="round" stroke-linejoin="round"/>
</svg>
